<!-- Generator: Adobe Illustrator 23.0.1, SVG Export PlugIn . SVG Version: 6.00 Build 0)  --><svg version="1.1" id="archive" xmlns="http://www.w3.org/2000/svg" xmlns:xlink="http://www.w3.org/1999/xlink" x="0px" y="0px" viewBox="0 0 48 48" style="enable-background:new 0 0 48 48;" xml:space="preserve">
<style type="text/css">
	.st0{fill:url(#SVGID_1_);}
	.st1{fill:url(#SVGID_2_);}
	.st2{fill:#C28200;}
</style>
<linearGradient id="SVGID_1_" gradientUnits="userSpaceOnUse" x1="9" y1="26" x2="39" y2="26" gradientTransform="matrix(1 0 0 -1 0 50)">
	<stop offset="0" style="stop-color:#FEDE00"></stop>
	<stop offset="1" style="stop-color:#FFD000"></stop>
</linearGradient>
<path class="st0" d="M39,41c0,1.1-0.9,2-2,2H11c-1.1,0-2-0.9-2-2V7c0-1.1,0.9-2,2-2h26c1.1,0,2,0.9,2,2V41z" style="fill: url(#SVGID_1_);"></path>
<linearGradient id="SVGID_2_" gradientUnits="userSpaceOnUse" x1="21.0008" y1="18.4998" x2="27" y2="18.4998" gradientTransform="matrix(1 0 0 -1 0 50)">
	<stop offset="0" style="stop-color:#4B4B4B"></stop>
	<stop offset="1" style="stop-color:#3B3B3B"></stop>
</linearGradient>
<path class="st1" d="M26.2,26.8c-0.1-0.5-0.5-0.8-1-0.8h-2.3c-0.5,0-0.9,0.3-1,0.8c-0.3,1.5-0.8,4.8-0.8,7c0,1.5,1,2.9,2.5,3.1
	c1.9,0.3,3.5-1.2,3.5-3C27,31.7,26.4,28.4,26.2,26.8z M24,35c-0.6,0-1-0.4-1-1s0.4-1,1-1s1,0.4,1,1S24.6,35,24,35z" style="fill: url(#SVGID_2_);"></path>
<path class="st2" d="M25.9,11.5v1c0,0.3-0.2,0.5-0.4,0.5h-1.2c-0.4,0-0.8-0.4-0.8-1s0.4-1,0.8-1h1.2C25.8,11,25.9,11.2,25.9,11.5z
	 M24.4,14c0-0.6-0.4-1-0.8-1h-1.2c-0.2,0-0.4,0.2-0.4,0.5v1c0,0.3,0.2,0.5,0.4,0.5h1.2C24,15,24.4,14.6,24.4,14z M23.6,16
	c0,0.6,0.4,1,0.8,1h1.2c0.2,0,0.4-0.2,0.4-0.5v-1c0-0.3-0.2-0.5-0.4-0.5h-1.2C23.9,15,23.6,15.4,23.6,16z M24.4,18
	c0-0.6-0.4-1-0.8-1h-1.2c-0.2,0-0.4,0.2-0.4,0.5v1c0,0.3,0.2,0.5,0.4,0.5h1.2C24,19,24.4,18.6,24.4,18z M23.6,20c0,0.6,0.4,1,0.8,1
	h1.2c0.2,0,0.4-0.2,0.4-0.5v-1c0-0.3-0.2-0.5-0.4-0.5h-1.2C23.9,19,23.6,19.4,23.6,20z M23.6,24c0,0.6,0.4,1,0.8,1h1.2
	c0.2,0,0.4-0.2,0.4-0.5v-1c0-0.3-0.2-0.5-0.4-0.5h-1.2C23.9,23,23.6,23.4,23.6,24z M24.4,22c0-0.6-0.4-1-0.8-1h-1.2
	c-0.2,0-0.4,0.2-0.4,0.5v1c0,0.3,0.2,0.5,0.4,0.5h1.2C24,23,24.4,22.6,24.4,22z M24.4,10c0-0.6-0.4-1-0.8-1h-1.2
	C22.2,9,22,9.2,22,9.5v1c0,0.3,0.2,0.5,0.4,0.5h1.2C24,11,24.4,10.6,24.4,10z M26,7.5v1C26,8.8,25.8,9,25.6,9h-1.2
	c-0.4,0-0.8-0.4-0.8-1s0.4-1,0.8-1h1.2C25.8,7,26,7.2,26,7.5z M24.4,6c0-0.6-0.4-1-0.8-1h-1.2C22.2,5,22,5.2,22,5.5v1
	C22,6.8,22.2,7,22.4,7h1.2C24,7,24.4,6.6,24.4,6z" style="fill: #C28200;"></path>
</svg>